/* XPM */
static char * Coffee_xpm[] = {
"67 89 11 1",
" 	c #000000",
".	c #4E393A",
"+	c #D7C7C0",
"@	c #918783",
"#	c #7D5C51",
"$	c #F2ECE9",
"%	c #5A7054",
"&	c #EBD8A3",
"*	c #272524",
"=	c #CD9F83",
"-	c #7B8CAA",
"                       ....................                        ",
"                .......++++++++++++++++++++.......                 ",
"            .....++++++++++++++++++++++++++++++++.....             ",
"         ....++++++++++++++++++++++++++++++++++++++++....          ",
"      ....++++++++++++++++++++++++++++++++++++++++++++++....       ",
"     ..++++++++++++++++++++++++++++++++++++++++++++++++++++..      ",
"    ..++++++++++++++++++++++++++++++++++++++++++++++++++++++..     ",
"   ..++++++++++++++++++++++++++++++++++++++++++++++++++++++++..    ",
"  ..++++++++++++++++++++++++++++++++++++++++++++++++++++++++++..   ",
" ..++++++++++++++++++++++++++++++++++++++++++++++++++++++++++++..  ",
" ..++++++++++++++++++++++++++++++++++++++++++++++++++++++++++++..  ",
"...+++++++++++++++++++++++++++++++++++++++++++++@@+++++++++++++... ",
"....+++++++++++++++++++++++++++++++++++++++++++@@@@+++++++++++.... ",
".....++++++++++++++++++++++++++++++++++++++++++@@@@@+++++++++..... ",
"#.....++++++++++++++++++++++++++++++++++++++++++@@@@++++++++.....# ",
"#......++++++++++++++++++++++++++++++++++++++++++@@++++++++......# ",
"##........++++++++++++++++++++++++++++++++++++++++++++++........## ",
"####.........++++++++++++++++++++++++++++++++++++++++..........### ",
"######...........++++++++++++++++++++++++++++++++...........###### ",
"$#######...............++++++++++++++++++++...............#######$ ",
"$$########..............................................########$$ ",
"$$$$##########......................................##########$$$$ ",
" $$$$$###############........................###############$$$$$  ",
" $$$$$$$$$##############################################$$$$$$$$$  ",
" $$$$$$$$$$$##########################################$$$$$$$$$$$  ",
" $$$$$$$$$$$$$$####################################$$$$$$$$$$$$$$  ",
"  $$$$$$$$$$$$$$$$$$$########################$$$$$$$$$$$$$$$$$$$   ",
"  $$$$$$$$$$$$$$$$$$$$$$$$$$$$$$$$$$$$$$$$$$$$$$$$$$$$$$$$$$$$$$   ",
"  $$$$$$$$$$$$$$$$$$$$$$$$$$$$$$$$$$$$$$$$$$$$$$$$$$$$$$$$$$$$$$   ",
"  $$$$$$$$$$$$$$$$$$$$$$$$$$$$$$$$$$$$$$$$$$$$$$$$$$$$$$$$$$$$$$   ",
"   $$$$$$$$$$$$$$$$$$$$$$$$$$$$$$$$$$$$$$$$$$$$$$$$$$$$$$$$$$$$    ",
"   $$$$$$$$$$$$$$$$$$$$$$$$$$$$$$$$$$$$$$$$$$$$$$$$$$$$$$$$$$$$    ",
"   $$$$$$$$$$$$$$$$$$$$$$$$$$$$$$$$$$$$$$$$$$$$$$$$$$$$$$$$$$$$    ",
"   $$$$$$$$$$$$$$$$$$$$$$$$$$$$$$$$$$$$$$$$$$$$$$$$$$$$$$$$$$$$    ",
"    $$$$$$$$$$$$$$$$$$$$$$$$$$$$$$$$$$$$$$$$$$$$$$$$$$$$$$$$$$     ",
"    $$$$$$$$$$$$$$$$$$$$$$$$$$$$$$$$$$$$$$$$$$$$$$$$$$$$$$$$$$     ",
"    $$$$$$$$$$$$$$$$$$$$$$$$$$$$$$$$$$$$$$$$$$$$$$$$$$$$$$$$$$     ",
"    %%%%%%%$$$$$$$$$$$$$$$$$$$$$$$$$$$$$$$$$$$$$$$$$$$$%%%%%%%     ",
"    %%%%%%%%%%%%%%%%%%%%$$$$$$$$$$$$$$$$$$%%%%%%%%%%%%%%%%%%%%     ",
"     %%%%%%%%%%%%%%%%%%%%%%%%%%%%%%%%%%%%%%%%%%%%%%%%%%%%%%%%      ",
"     %%%%%%%%%%%%%%%%%%%%%%%%%%%%%%%%%%%%%%%%%%%%%%%%%%%%%%%%      ",
"     %%%%%%%%%%%%%%%%%%%%%%%%%%%%%%%%%%%%%%%%%%%%%%%%%%%%%%%%      ",
"     %%%%%%%%%%%%%%%%%%%%%%%%%%%%%%%%%%%%%%%%%%%%%%%%%%%%%%%%      ",
"      %%%%%%%%%%%%%%%%%%%%%%%%%%%%%%%%%%%%%%%%%%%%%%%%%%%%%%       ",
"      %%%%%%%%%%%%%%%%%&&&&%%%%%%%%%%%%%%%%%%%%%%%%%%%%%%%%%       ",
"      %%%%%%%%%%%%%%%&&&&&&&&%%%%%%%%%%%%%%%%%%%%%%%%%%%%%%%       ",
"      %%%%%%%%%%%%%%&&&&&&&&&&%%%%%%%%%%%%%%%%%%%%%%%%%%%%%%       ",
"       %%%%%%%%%%%%%*&&&*&&&&&%%%%%%%%%%%%%%%%%%%%%%%%%%%%%        ",
"       %%%%%%%%%%========&&&&&&&&&&&&&&&%%%%%%%%%%%%%%%%%%%        ",
"       %%%%%%%%%%%======&&&&&&&&&&&&&&&&&%%%%%%%%%%%%%%%%%%        ",
"       %%%%%%%%%%%%%%%%&&&&&&&=======&&&&%%%%%%%%%%%%%%%%%%        ",
"       %%%%%%%%%%%%%%%%%&&&&&&&&&&&=&&&&&%%%%%%%%%%%%%%%%%%        ",
"        %%%%%%%%%%%%%%%%&&&&&&&&===&&&&&&%%%%%%%%%%%%%%%%%         ",
"        %%%%%%%%%%%%%%%%&&&&&&&&&=&&&&&&&%%%%%%%%%%%%%%%%%         ",
"        %%%%%%%%%%%%%%%%&&&&&&&==&&&&&&&&%%%%%%%%%%%%%%%%%         ",
"        %%%%%%%%%%%%%%%%%&&&&&&&&&&&&&&&%%%%%%%%%%%%%%%%%%         ",
"         %%%%%%%%%%%%%%---&&&&&&&&&&&&&----%%%%%%%%%%%%%%          ",
"         %%%%%%%%%%%%%----------------------%%%%%%%%%%%%%          ",
"         %%%%%%%%%%%%%%--------------------%%%%%%%%%%%%%%          ",
"         %%%%%%%%%%%%%%%%%%------------%%%%%%%%%%%%%%%%%%          ",
"          %%%%%%%%%%%%%%%%%%%%%%%%%%%%%%%%%%%%%%%%%%%%%%           ",
"          %%%%%%%%%%%%%%%%%%%%%%%%%%%%%%%%%%%%%%%%%%%%%%           ",
"          %%%%%%%%%%%%%%%%%%%%%%%%%%%%%%%%%%%%%%%%%%%%%%           ",
"          %%%%%%%%%%%%%%%%%%%%%%%%%%%%%%%%%%%%%%%%%%%%%%           ",
"           %%%%%%%%%%%%%%%%%%%%%%%%%%%%%%%%%%%%%%%%%%%%            ",
"           $$$%%%%%%%%%%%%%%%%%%%%%%%%%%%%%%%%%%%%%%$$$            ",
"           $$$$$$$$%%%%%%%%%%%%%%%%%%%%%%%%%%%%$$$$$$$$            ",
"           $$$$$$$$$$$$$$$%%%%%%%%%%%%%%$$$$$$$$$$$$$$$            ",
"           $$$$$$$$$$$$$$$$$$$$$$$$$$$$$$$$$$$$$$$$$$$$            ",
"            $$$$$$$$$$$$$$$$$$$$$$$$$$$$$$$$$$$$$$$$$$             ",
"            $$$$$$$$$$$$$$$$$$$$$$$$$$$$$$$$$$$$$$$$$$             ",
"            $$$$$$$$$$$$$$$$$$$$$$$$$$$$$$$$$$$$$$$$$$             ",
"            $$$$$$$$$$$$$$$$$$$$$$$$$$$$$$$$$$$$$$$$$$             ",
"             $$$$$$$$$$$$$$$$$$$$$$$$$$$$$$$$$$$$$$$$              ",
"             $$$$$$$$$$$$$$$$$$$$$$$$$$$$$$$$$$$$$$$$              ",
"             $$$$$$$$$$$$$$$$$$$$$$$$$$$$$$$$$$$$$$$$              ",
"             $$$$$$$$$$$$$$$$$$$$$$$$$$$$$$$$$$$$$$$$              ",
"              $$$$$$$$$$$$$$$$$$$$$$$$$$$$$$$$$$$$$$               ",
"              $$$$$$$$$$$$$$$$$$$$$$$$$$$$$$$$$$$$$$               ",
"              $$$$$$$$$$$$$$$$$$$$$$$$$$$$$$$$$$$$$$               ",
"              $$$$$$$$$$$$$$$$$$$$$$$$$$$$$$$$$$$$$$               ",
"               $$$$$$$$$$$$$$$$$$$$$$$$$$$$$$$$$$$$                ",
"               $$$$$$$$$$$$$$$$$$$$$$$$$$$$$$$$$$$$                ",
"               $$$$$$$$$$$$$$$$$$$$$$$$$$$$$$$$$$$$                ",
"                $$$$$$$$$$$$$$$$$$$$$$$$$$$$$$$$$$                 ",
"                 $$$$$$$$$$$$$$$$$$$$$$$$$$$$$$$$                  ",
"                   $$$$$$$$$$$$$$$$$$$$$$$$$$$$                    ",
"                      $$$$$$$$$$$$$$$$$$$$$$                       ",
"                          $$$$$$$$$$$$$$                           "};
