/* XPM */
static char * Door0Down_xpm[] = {
"128 128 11 1",
" 	c #F2F0E5",
".	c #B8B5B9",
"+	c #868188",
"@	c #929292",
"#	c #43436A",
"$	c #777777",
"%	c #5F5F5F",
"&	c #3E3E3E",
"*	c #313131",
"=	c #272727",
"-	c #1F1F1F",
"                                                                                                                                ",
"                                                                                                                                ",
"                                                                                                                                ",
"                                                                                                                                ",
"                                                                                                                                ",
"                                                                                                                                ",
"                                                                                                                                ",
"                                                                                                                                ",
"                                                                                                                                ",
"                                                                                                                                ",
"                                                                                                                                ",
"                                                                                                                                ",
"                                                                                                                                ",
"                                                                                                                                ",
"                                                                                                                                ",
"                                                                                                                                ",
"                                                                                                                                ",
"                                                                                                                                ",
"                                                                                                                                ",
"                                                                                                                                ",
"                                                                                                                                ",
"                                                                                                                                ",
"                                                                                                                                ",
"                                    ...++++.+++.+..+++.+...++.++++.++...+.+++..+.+++.++++...                                    ",
"                                   +@@@@@@@@@@@@@@@@@@@@@@@@@@@@@@@@@@@@@@@@@@@@@@@@@@@@@@@@.                                   ",
"                                  .@@@@@@@@@@@@@@@@@@@@@@@@@@@@@@@@@@@@@@@@@@@@@@@@@@@@@@@@@@+                                  ",
"                                 .@@@@@@@@@@@@@@@@@@@@@@@@@@@@@@@@@@@@@@@@@@@@@@@@@@@@@@@@@@@@+                                 ",
"                                +@@@@@@@@@@@@@@@@@@@@@@@@@@@@@@@@@@@@@@@@@@@@@@@@@@@@@@@@@@@@@@.                                ",
"                               .@@@@@@@@@@@@@@@@@@@@@@@@@@@@@@@@@@@@@@@@@@@@@@@@@@@@@@@@@@@@@@@@+                               ",
"             ###########       .$$$$$$$$$$$$$$$$$$$$$$$$$$$$$$$$$$$$$$$$$$$$$$$$$$$$$$$$$$$$$$$$.                               ",
"            #############      +$$$$$$$$$$$$$$$$$$$$$$$$$$$$$$$$$$$$$$$$$$$$$$$$$$$$$$$$$$$$$$$$+                               ",
"           ## ######### ##     .$$$$$$$$$$$$$$$$$$$$$$$$$$$$$$$$$$$$$$$$$$$$$$$$$$$$$$$$$$$$$$$$.                               ",
"           ##  #######  ##     +$$$$$$$$$$$$$$$$$$$$$$$$$$$$$$$$$$$$$$$$$$$$$$$$$$$$$$$$$$$$$$$$+                               ",
"           ##   #####   ##     +%%%%%%%%%%%%%%%%%%%%%%%%%%%%%%%%%%%%%%%%%%%%%%%%%%%%%%%%%%%%%%%%+                               ",
"           ##    ###    ##     +%%%%%%%%%%%%%%%%%%%%%%%%%%%%%%%%%%%%%%%%%%%%%%%%%%%%%%%%%%%%%%%%+                               ",
"           ###    #    ###     +%%%%%%%%%%%%%%%%%%%%%%%%%%%%%%%%%%%%%%%%%%%%%%%%%%%%%%%%%%%%%%%%.                               ",
"           ####       ####     +&&&&&&&&&&&&&&&&&&&&&&&&&&&&&&&&&&&&&&&&&&&&&&&&&&&&&&&&&&&&&&&&+                               ",
"           ## ##     ## ##     .&&&&&&&&&&&&&&&&&&&&&&&&&&&&&&&&&&&&&&&&&&&&&&&&&&&&&&&&&&&&&&&&.                               ",
"           ##  ##   ##  ##     .&&&&&&&&&&&&&&&&&&&&&&&&&&&&&&&&&&&&&&&&&&&&&&&&&&&&&&&&&&&&&&&&.                               ",
"           ##   ## ##   ##     .****************************************************************.                               ",
"           ###   ###   ###     +****************************************************************+                               ",
"           ####   #   ####     +****************************************************************+                               ",
"           ## ##     ## ##     +===============================================================-.                               ",
"           ### ##   ## ###     +===============================================================-.                               ",
"           #### ## ## ####     +----------------------------------------------------------------.                               ",
"           ##### ### #####     .----------------------------------------------------------------.                               ",
"           ###### # ######     +----------------------------------------------------------------.                               ",
"            ###### ######      +----------------------------------------------------------------.                               ",
"             ###########       .----------------------------------------------------------------+                               ",
"                               .----------------------------------------------------------------+                               ",
"                               .----------------------------------------------------------------+                               ",
"                               +----------------------------------------------------------------.                               ",
"                               +----------------------------------------------------------------+                               ",
"                               .----------------------------------------------------------------+                               ",
"                               +----------------------------------------------------------------+                               ",
"                               +----------------------------------------------------------------+                               ",
"                               +----------------------------------------------------------------+                               ",
"                               .----------------------------------------------------------------+                               ",
"                               +----------------------------------------------------------------+                               ",
"                               .----------------------------------------------------------------+                               ",
"                               .----------------------------------------------------------------+                               ",
"                               .----------------------------------------------------------------.                               ",
"                               .----------------------------------------------------------------+                               ",
"                               +----------------------------------------------------------------+                               ",
"                               +----------------------------------------------------------------+                               ",
"                               .----------------------------------------------------------------.                               ",
"                               .----------------------------------------------------------------.                               ",
"                               .----------------------------------------------------------------.                               ",
"                               .----------------------------------------------------------------+                               ",
"                               .----------------------------------------------------------------+                               ",
"                               +----------------------------------------------------------------+                               ",
"                               +----------------------------------------------------------------.                               ",
"                               +----------------------------------------------------------------+                               ",
"                               .----------------------------------------------------------------.                               ",
"                               +----------------------------------------------------------------.                               ",
"                               .----------------------------------------------------------------+                               ",
"                               .----------------------------------------------------------------+                               ",
"                               .----------------------------------------------------------------+                               ",
"                               +----------------------------------------------------------------+                               ",
"                               +----------------------------------------------------------------.                               ",
"                               +----------------------------------------------------------------.                               ",
"                               +----------------------------------------------------------------.                               ",
"                               .----------------------------------------------------------------+                               ",
"                               .----------------------------------------------------------------.                               ",
"                               .----------------------------------------------------------------+                               ",
"                               .----------------------------------------------------------------+                               ",
"                               +----------------------------------------------------------------+                               ",
"                               +----------------------------------------------------------------.                               ",
"                               +----------------------------------------------------------------+                               ",
"                               .----------------------------------------------------------------.                               ",
"                               .----------------------------------------------------------------.                               ",
"                               .----------------------------------------------------------------.                               ",
"                               .----------------------------------------------------------------+                               ",
"                               .----------------------------------------------------------------+                               ",
"                               +----------------------------------------------------------------.                               ",
"                               .----------------------------------------------------------------+                               ",
"                               .----------------------------------------------------------------+                               ",
"                               .----------------------------------------------------------------+                               ",
"                               .----------------------------------------------------------------.                               ",
"                               .----------------------------------------------------------------.                               ",
"                               +----------------------------------------------------------------+                               ",
"                               .----------------------------------------------------------------+                               ",
"                               +----------------------------------------------------------------+                               ",
"                               +----------------------------------------------------------------.                               ",
"                               .----------------------------------------------------------------.                               ",
"                               .----------------------------------------------------------------.                               ",
"                               .----------------------------------------------------------------+                               ",
"                               +----------------------------------------------------------------+                               ",
"###############  ############# +----------------------------------------------------------------. ############  ################",
"################  ############ .----------------------------------------------------------------+ #############  ###############",
"################  ############ .----------------------------------------------------------------+ #############  ###############",
"###############  ############# +----------------------------------------------------------------+ ############  ################",
"                               +----------------------------------------------------------------+                               ",
"                               +----------------------------------------------------------------.                               ",
"                               .----------------------------------------------------------------.                               ",
"                               +----------------------------------------------------------------.                               ",
"##################     ######  .----------------------------------------------------------------+ ##############################",
"####################     ##### +----------------------------------------------------------------. ##############################",
"######################     ### .----------------------------------------------------------------+ ##############################",
"######################     ### .----------------------------------------------------------------+ ##############################",
"######################     ### .----------------------------------------------------------------+ ##############################",
"####################     ##### +----------------------------------------------------------------. ##############################",
"##################     ######  +----------------------------------------------------------------. ##############################",
"                               .----------------------------------------------------------------.                               ",
"                               .----------------------------------------------------------------+                               ",
"                               .----------------------------------------------------------------.                               ",
"                               +----------------------------------------------------------------+                               ",
"                               +----------------------------------------------------------------.                               "};
