/* XPM */
static char * Wall0_1_xpm[] = {
"128 128 4 1",
" 	c #F2F0E5",
".	c #B8B5B9",
"+	c #868188",
"@	c #43436A",
"                                                                                                                                ",
"                                                                                                                                ",
"   ..    ..++++++++..+.++.+++++.+...+++++....+...++...+++++....+.+...++++++++..+...+....+....++++..+++++..+++.+..+..+.+    ..   ",
"  .+..  +                                                                                                              +  ..+.  ",
"  ..+.  .                                                                                                              +  .+..  ",
"   ..  .                                                                                                                .  ..   ",
"      +                                                                                                                  +      ",
"     +                                                                                                                    .     ",
"   +.                                                                                                                      ++   ",
"  .                                                                                                                          +  ",
"  +                                                                                                                          .  ",
"  .                                                                                                                          +  ",
"  .                                                                                                                          .  ",
"  +                                                                                                                          +  ",
"  +                                                                                                                          +  ",
"  +                                                                                                                          +  ",
"  +                                                                                                                          +  ",
"  +                                                                                                                          +  ",
"  +                                                                                                                          +  ",
"  .                                                                                                                          .  ",
"  .                                                                                                                          .  ",
"  +                                                                                                                          +  ",
"  .                                                                                                                          +  ",
"  .                                                                                                                          +  ",
"  .                                                                                                                          +  ",
"  .                                                                                                                          .  ",
"  +                                                                                                                          +  ",
"  +                                                                                                                          .  ",
"  +                                                                                                                          +  ",
"  +                                                                                                                          +  ",
"  +                                                                                                                          .  ",
"  .                                                                                                                          .  ",
"  .                                                                                                                          .  ",
"  +                                                                                                                          .  ",
"  +                                                                                                                          .  ",
"  .                                                                                                                          .  ",
"  .                                                                                                                          +  ",
"  +                                                                                                                          .  ",
"  +                                                                                                                          +  ",
"  .                                                                                                                          +  ",
"  +                                                                                                                          +  ",
"  +                                                                                                                          +  ",
"  +                                                                                                                          +  ",
"  .                                                                                                                          .  ",
"  +                                                                                                                          .  ",
"  .                                                                                                                          +  ",
"  +                                                                                                                          +  ",
"  +                                                                                                                          .  ",
"  +                                                                                                                          .  ",
"  +                                                                                                                          +  ",
"  +                                                                                                                          +  ",
"  +                                                                                                                          +  ",
"  +                                                                                                                          +  ",
"  .                                                                                                                          .  ",
"  +                                                                                                                          .  ",
"  +                                                                                                                          .  ",
"  +                                                                                                                          .  ",
"  +                                                                                                                          +  ",
"  .                                                                                                                          .  ",
"  .                                                                                                                          +  ",
"  +                                                                                                                          +  ",
"  +                                                                                                                          +  ",
"  +                                                                                                                          .  ",
"  .                                                                                                                          .  ",
"  .                                                                                                                          .  ",
"  +                                                                                                                          +  ",
"  +                                                                                                                          +  ",
"  +                                                                                                                          +  ",
"  .                                                                                                                          +  ",
"  .                                                                                                                          +  ",
"  .                                                                                                                          .  ",
"  +                                                                                                                          .  ",
"  +                                                                                                                          +  ",
"  +                                                                                                                          +  ",
"  .                                                                                                                          .  ",
"  +                                                                                                                          .  ",
"  +                                                                                                                          .  ",
"  .                                                                                                                          .  ",
"  .                                                                                                                          +  ",
"  +                                                                                                                          .  ",
"  +                                                                                                                          +  ",
"  +                                                                                                                          .  ",
"  .                                                                                                                          .  ",
"  +                                                                                                                          +  ",
"  .                                                                                                                          +  ",
"  +                                                                                                                          +  ",
"  +                                                                                                                          +  ",
"  +                                                                                                                          +  ",
"  +                                                                                                                          .  ",
"  +                                                                                                                          .  ",
"  .                                                                                                                          .  ",
"  .                                                                                                                          +  ",
"  +                                                                                                                          +  ",
"  +                                                                                                                          +  ",
"  +                                                                                                                          .  ",
"  +                                                                                                                          +  ",
"  +                                                                                                                          +  ",
"  +                                                                                                                          .  ",
"  .                                                                                                                          .  ",
"  .                                                                                                                          .  ",
"  +                                                                                                                          +  ",
"  +                                                                                                                          .  ",
"  .                                                                                                                          +  ",
"   .                                                                                                                        .   ",
"    +                                                                                                                      +    ",
"     ..++.+++.++++.++....+++.+.+.++.+.++++++...+++..++.+...+++++++...++++.++.+.++..+++++.+.++...+++++++++....+++..++.+.++++     ",
"                                                                                                                                ",
"                                                                                                                                ",
"@@@@@@@@@@@@@@@  @@@@@@@@@@@@@@@@@  @@@@@@@@@@@@@@@@@  @@@@@@@@@@@@@@@@@  @@@@@@@@@@@@@@@@@  @@@@@@@@@@@@@@@@@  @@@@@@@@@@@@@@@@",
"@@@@@@@@@@@@@@@@  @@@@@@@@@@@@@@@@@  @@@@@@@@@@@@@@@@@  @@@@@@@@@@@@@@@@@  @@@@@@@@@@@@@@@@@  @@@@@@@@@@@@@@@@@  @@@@@@@@@@@@@@@",
"@@@@@@@@@@@@@@@@  @@@@@@@@@@@@@@@@@  @@@@@@@@@@@@@@@@@  @@@@@@@@@@@@@@@@@  @@@@@@@@@@@@@@@@@  @@@@@@@@@@@@@@@@@  @@@@@@@@@@@@@@@",
"@@@@@@@@@@@@@@@  @@@@@@@@@@@@@@@@@  @@@@@@@@@@@@@@@@@  @@@@@@@@@@@@@@@@@  @@@@@@@@@@@@@@@@@  @@@@@@@@@@@@@@@@@  @@@@@@@@@@@@@@@@",
"                                                                                                                                ",
"                                                                                                                                ",
"                                                                                                                                ",
"                                                                                                                                ",
"@@@@@@@@@@@@@@@@@@     @@@@@@     @@@@@@@@@@@@@@@@@@@@@@@@@@@@@@@@@@@@@@     @@@@@@     @@@@@@@@@@@@@@@@@@@@@@@@@@@@@@@@@@@@@@@@",
"@@@@@@@@@@@@@@@@@@@@     @@@@@@     @@@@@@@@@@@@@@@@@@@@@@@@@@@@@@@@@@@@@@     @@@@@@     @@@@@@@@@@@@@@@@@@@@@@@@@@@@@@@@@@@@@@",
"@@@@@@@@@@@@@@@@@@@@@@     @@@@@@     @@@@@@@@@@@@@@@@@@@@@@@@@@@@@@@@@@@@@@     @@@@@@     @@@@@@@@@@@@@@@@@@@@@@@@@@@@@@@@@@@@",
"@@@@@@@@@@@@@@@@@@@@@@     @@@@@@     @@@@@@@@@@@@@@@@@@@@@@@@@@@@@@@@@@@@@@     @@@@@@     @@@@@@@@@@@@@@@@@@@@@@@@@@@@@@@@@@@@",
"@@@@@@@@@@@@@@@@@@@@@@     @@@@@@     @@@@@@@@@@@@@@@@@@@@@@@@@@@@@@@@@@@@@@     @@@@@@     @@@@@@@@@@@@@@@@@@@@@@@@@@@@@@@@@@@@",
"@@@@@@@@@@@@@@@@@@@@     @@@@@@     @@@@@@@@@@@@@@@@@@@@@@@@@@@@@@@@@@@@@@     @@@@@@     @@@@@@@@@@@@@@@@@@@@@@@@@@@@@@@@@@@@@@",
"@@@@@@@@@@@@@@@@@@     @@@@@@     @@@@@@@@@@@@@@@@@@@@@@@@@@@@@@@@@@@@@@     @@@@@@     @@@@@@@@@@@@@@@@@@@@@@@@@@@@@@@@@@@@@@@@",
"                                                                                                                                ",
"                                                                                                                                ",
"                                                                                                                                ",
"                                                                                                                                ",
"                                                                                                                                "};
