/* XPM */
static char * Wall0_3_xpm[] = {
"128 128 33 1",
" 	c #F2F0E5",
".	c #868188",
"+	c #B8B5B9",
"@	c #383838",
"#	c #171717",
"$	c #1E1E1E",
"%	c #232323",
"&	c #313131",
"*	c #3D3D3D",
"=	c #646365",
"-	c #A9EA62",
";	c #575757",
">	c #8C8C8C",
",	c #45444F",
"'	c #7F3A3A",
")	c #B45252",
"!	c #8AB060",
"~	c #7B7243",
"{	c #464646",
"]	c #545454",
"^	c #5F556A",
"/	c #4B80CA",
"(	c #68C2D3",
"_	c #986C95",
":	c #CF8ACB",
"<	c #D3A068",
"[	c #EDE19E",
"}	c #3D6398",
"|	c #424242",
"1	c #2F2F2F",
"2	c #2C2C2C",
"3	c #252525",
"4	c #43436A",
"                                                                                                                                ",
"                                                                                                                                ",
"   ..    ++........++.+..+.....+.+++.....++++.+++..+++.....++++.+.+++........++.+++.++++.++++....++.....++...+.++.++.+.    ..   ",
"  .@@.  .#########$%%%&&&&&&**=-$$-$-=-$$-$-$=$-$$$$=*****&&&&&&%$$####################################################.  .@@.  ",
"  .@@.  +########$$%%%&&&&&***=*;*;;*=;*;*;*;=*;;*;*=*****&&&&&&%%$####################################################.  .@@.  ",
"   ..  +#########$$%%&&&&&&***=;;;;;;=;;;;;;;=;;;;;;=*****&&&&&&%%$#####################################################+  ..   ",
"      .#########$$%%%&&&&&&***>>>====>=>>====>>=>>===*****&&&&&&%%%$#####################################################.      ",
"     .##########$$%%%&&&&&&***>-$-$$$>$-$-$-$>$$-$-$=*****&&&&&&%%%$######################################################+     ",
"   .+###########$$%%&&&&&&&***=*;*;;*=;*;*;*;=*;;*;*=*****&&&&&&%%%$#######################################################..   ",
"  +#############$$%%&&&&&&&***=;;;;;;=;;;;;;;=;;;;;;=****&&&&&&&%%%$#########################################################.  ",
"  .#############$$%%&&&&&&&***=>>=============>>=>===****&&&&&&&%%%$$########################################################+  ",
"  +##############$%%&&&&&&&***>$$$-$-=-$-$$-$=-$$-$$=****&&&&&&%%%%%$########################################################.  ",
"  +##############$%%&&&&&&&***=*;*;;*=;*;*;*;>*;;*;*=***&&&&&&&%%%%%$########################################################+  ",
"  .##############$%%&&&&&&&***=;;;;;;=;;;;;;;=;;;;;;=****&&&&&&%%%%%$$#######################################################.  ",
"  .##############$%%&&&&&&&***>=>>=====>>====>>==>===****&&&&&&%%%%%$$#######################################################.  ",
"  .##############$%%&&&&&&****>$$-$$->$-$-$$->-$$$-$=****&&&&&&%%%%%$$$######################################################.  ",
"  .#############$$%%&&&&&&****=*;*;;*=;*;*;*;=*;;*;*=*****&&&&&%%%%%$$$######################################################.  ",
"  .#############$$%%&&&&&&****=;;;;;;=;;;;;;;>;;;;;;=*****&&&&&%%%%%$$$######################################################.  ",
"  .#############$$%%&&&&&&****>>>====>>=======>=>====*****&&&&&%%%%%$$$######################################################.  ",
"  +############$$%%%&&&&&&****>-$$-$$>$-$$$$->$-$$$-=******&&&&%%%%%$$$######################################################+  ",
"  +############$$$%%&&&&&&****=*;*;;*=;*;*;*;>*;;*;*=******&&&&%%%%%$$#######################################################+  ",
"  .############$$$%%&&&&&&****=;;;;;;=;;;;;;;=;;;;;;=******&&&&&%%%%$$#######################################################.  ",
"  +#############$$%%&&&&&&****>>=>>====>>====>=======******&&&&&%%%%$$#######################################################.  ",
"  +#############$$%%&&&&&&****>$-$$-$=$$$-$-$>$-$-$$=******&&&&&%%%%%$#######################################################.  ",
"  +#############$$%%&&&&&&****=*;*;;*=;*;*;*;=*;;*;*=******&&&&&%%%%%########################################################.  ",
"  +#############$$%%&&&&&&****=;;;;;;=;;;;;;;=;;;;;;=******&&&&&%%%%%########################################################+  ",
"  .#############$$%%%&&&&&****>>=====>>>>====>>==>===*****&&&&&&%%%%%########################################################.  ",
"  .#############$$%%%&&&&&****>$$-$$->-$-$$$->-$$$$-=*****&&&&&&%%%%$########################################################+  ",
"  .#############$$%%%&&&&&&***=*;*;;*>;*;*;*;=*;;*;*=*****&&&&&&%%%$$########################################################.  ",
"  .#############$$%%%&&&&&&***=;;;;;;=;;;;;;;=;;;;;;=*****&&&&&&&%%$$########################################################.  ",
"  .#############$$%%%%&&&&&***>>=====>>>=====>>>==>==****&&&&&&&&%%$$########################################################+  ",
"  +#############$$%%%%&&&&&***>-$-$$-=$$$-$-$>$$-$$-=****&&&&&&&&%%%$$#######################################################+  ",
"  +##############$%%%%&&&&&***=*;*;;*>;*;*;*;>*;;*;*=****&&&&&&&&&%%$$#######################################################+  ",
"  .##############$%%%%&&&&&&**=;;;;;;=;;;;;;;=;;;;;;=****&&&&&&&&&%%$$#######################################################+  ",
"  .#############$%%%%%&&&&&&**>=>>===>>>=>===>=>>>===****&&&&&&&&&%%$$#######################################################+  ",
"  +#############$%%%%%&&&&&&**>-$-$-$>-$$-$-$>$-$-$-=****&&&&&&&&&%%$$#######################################################+  ",
"  +#############$%%%%%&&&&&&&*=*;*;;*=;*;*;*;=*;;*;*=****&&&&&&&&&%%$$#######################################################.  ",
"  .#############$%%%%%&&&&&&&&>;;;;;;=;;;;;;;=;;;;;;=***&&&&&&&&&&%%$$#######################################################+  ",
"  .#############$%%%%&&&&&&&&&=;;;;;;=;;;;;;;=;;;;;;=&&&&&&&&&&&&&%%$$#######################################################.  ",
"  +##############%%%%&&&&&&&+++++++++++++++++++++++++++&&&&&&&&&&&%%$$#######################################################.  ",
"  .##############%%%%&&&&&&&..........................+&&&&&&&&&&&%%$$#######################################################.  ",
"  .##############$%%%&&&&&&&..........................+&&&&&&&&&&&%%$$#######################################################.  ",
"  .##############$%%%&&&&&&&..........................+&&&&&&&&&&&%%$$#######################################################.  ",
"  +=========================...,..,..,..,..,..,.......+======================================================================+  ",
"  .')))+)'))+''')+))''')))'+..........................+!!~~+!~!~+~~!~+!!!!~!!!~!~{{{{{{{{]{{{{{{{{{{{{{{{{{{{{{{{{{]{{{{]{)''+  ",
"  +{{{{]{{{{]{{{{]{{{{{{{{{^....,..,..,..,..,..,......+{{{{]{{{{]{{{{]{{{{{{{{{{!{{{{{{{{]{{{{{{{{{{{{{{{{{{{{{{{{{]{{{{]{){{.  ",
"  .{{{{]{{{{]{{{{]{{{{{{{{{^..........................+{{{/+((//({{{{]{{{{{{{{{{!~~!!~~~~+!~!!~!!{{_:_::__:{{{{{{{{]{{{{]{'{{.  ",
"  .~~~!+!!!~+!!!!+!~!!!!~~!+...,..,..,..,..,..,.......+<<[[+[<[[([[<<[{{{{{{{{{{{{{{{{{{{]{{{{{{!{{_{{{{{{:{{{{{{{{]{{!~+~'~!+  ",
"  .{{{{]{{{{]{{{{]{{{{{{{{{+.....................^....+{{{(]{{{{+{{{{[{{{{{{{:__:::_{))')+)))'')~)':''{{{{_{{{{{{{{]{{!{]{){{+  ",
"  .////+}}//+}/}}+}///}//}/+.....................^....+(//(]{{{{(//((/(//{{{{:{{{{{:{){{{]{{{{{{~{{:{){}////}//{{{{]{}/}+////.  ",
"  .{{{{]{{{{]{{{{]{{{{{{{{{+......................^...+{{{{]{{{{]{{{{+{{({{)):))'')))){{{]{{{{{{!!~:!!~/!!:!~{}{{{{]{}~{')){{.  ",
"  .{{{{]{{{{]{{{{]{{{{{{{{{{......................^...+{{{{]{{{{]{{{{<{{({{'{:{{{{{___:_:+:::{{{{{{_{'{}{{:{!{/{{{{]{/~{+{{{{.  ",
"  .{{{{]{{{{]{{{{]{{{{{{{{{{......................^...+{{{{]{{}}+//}}<//}/}}}//{{{{{{{{{{]{{:__:::__{'{}{{_{!!~~~!~+!}!{+{{{{.  ",
"  +<[[[+<<<[+[[[[+<[[[[[<[<<......................^...+')))+)'')+)'{{[[[(<['[_}}////}}///+}{{(/(/((/{){/{{_{{{//}}/+//{{'{[[[+  ",
"  .{{{{]{{{{={{{{={{{{{{{{{{......................^...+{{{{]{{/{]{'{{]{{/{{'<_{{{{{{{{{{{]/{{({{[[<<[[<<[[:[<{{((((+({''){<{{+  ",
"  .(/((+//((+(/((+///(((((//......................^...+:::_+:__:_{)')+)')'))<:{{{{{{{{{<<+[[[[<[[{{({'{}{{:::_:(:__]//)(+/<((+  ",
"  .{{{{]{{{{]{{{{]{{{{{{{{{{.....................^....+{{{{]{{}{+{{{{]{{({{{[[<<[[<[[[<[{]//}}}//}//}//}{{{{[<<<[[:+<<[<+[[{{+  ",
"  .{{{{]{{{{]{{_:+::_:::__:+.....................^....+//}}+///{:{{{{]{{(///(:(((/((/{{{{]{{{/{{{{{(((((//(/((//{{:+__::+:_:_.  ",
"  +__::+::::+::_{]{{{{{{{{{+..........................+{{{{]{{{{::___+::::_::_{{{{{{((//(+(/(({{{{{{{'')))')'))''')+))'{]{{{{+  ",
"  +{{{{]{{{{]{{{{]{{{{{{{{{+..........................+{{{{]{{{{]{{{{]{{{{{{{{{{{{{{{{{{{]{{{{{{{{{{{{{{{{{{{{{{{{{]{{{{]{{{{.  ",
"  .========================+..........................+======================================================================.  ",
"  .#############$%%&&&&&&&&+..........................+&&&&&&&&&$$$$$$#######################################################.  ",
"  .#############$%%%&&&&&&&^..........................+&&&&&&&&&$$$$$$#######################################################+  ",
"  +#############$%%%&&&&&&&^..........................+&&&&&&&&&$$$$$$#######################################################+  ",
"  +##############$%%%&&&&&&+..........................+&&&&&&&&&$$$$$$#######################################################+  ",
"  .##############$%%%%&&&&&&..........................+&&&&&&&&$$$$$$########################################################.  ",
"  .###############$%%%&&&&&&..........................+&&&&&&&$$$$$$$########################################################.  ",
"  .################$%%%&&&&&..........................+&&&&&&&$$$$$$$########################################################.  ",
"  +#################$$%%%&&&..........................+&&&&&&$$$$$$$#########################################################.  ",
"  +##################$$%%%%%..........................+&&&$$$$$$$$$##########################################################.  ",
"  +###################$$%%%%%%>{{{{{{{={{{{{{{{{{{{{>$$$$$$$$$$$$############################################################+  ",
"  .#####################$$$$$$={{{{{{{>{{{{{{{{{{{{{>$$$$$$$$$$$#############################################################+  ",
"  .###########################={{{{{{{={{{{{{{{{{{{{=########################################################################.  ",
"  .###########################={{{{{{{={{{{{{{{{{{{{=########################################################################.  ",
"  +###########################>>====>>>===========>>>########################################################################+  ",
"  .###########################>{{{{{{{>{{{{{{{{{{{{{>########################################################################+  ",
"  .###########################={{{{{{{>{{{{{{{{{{{{{>########################################################################+  ",
"  +###########################={{{{{{{>{{{{{{{{{{{{{=########################################################################+  ",
"  +###########################={{{{{{{={{{{{{{{{{{{{=########################################################################.  ",
"  .###########################={{{{{{{={{{{{{{{{{{{{=########################################################################+  ",
"  .###########################|{{{{{{{>{{{{{{{{{{{{@|########################################################################.  ",
"  .###########################|@@@@{{{={{{{{{{{{{@@@|########################################################################+  ",
"  +###########################|@@@@@@@|@@@@@@@@@@@@@|########################################################################+  ",
"  .###########################12@@@@@@|@@@@@@@@@@@221########################################################################.  ",
"  +###########################1222@@@@|@@@@@@@@@22221########################################################################.  ",
"  .###########################122222@@|@@@@@@@2222221########################################################################.  ",
"  .###########################3##222221222222222222#3########################################################################.  ",
"  .###########################3####2221222222222####3########################################################################.  ",
"  .##################################2122222########3########################################################################+  ",
"  .###################################3#############3########################################################################+  ",
"  +###################################3######################################################################################+  ",
"  +###################################3######################################################################################.  ",
"  .##########################################################################################################################.  ",
"  .##########################################################################################################################.  ",
"  .##########################################################################################################################+  ",
"  .##########################################################################################################################.  ",
"  .##########################################################################################################################.  ",
"  .##########################################################################################################################+  ",
"  +##########################################################################################################################+  ",
"  +##########################################################################################################################+  ",
"  .##########################################################################################################################.  ",
"  .##########################################################################################################################+  ",
"  +##########################################################################################################################.  ",
"   +########################################################################################################################+   ",
"    .######################################################################################################################.    ",
"     ++..+...+....+..++++...+.+.+..+.+......+++...++..=.+++.......+++....+..+.+..++.....+.+..+++.........++++...++..+.+....     ",
"                                                                                                                                ",
"                                                                                                                                ",
"444444444444444  44444444444444444  44444444444444444  44444444444444444  44444444444444444  44444444444444444  4444444444444444",
"4444444444444444  44444444444444444  44444444444444444  44444444444444444  44444444444444444  44444444444444444  444444444444444",
"4444444444444444  44444444444444444  44444444444444444  44444444444444444  44444444444444444  44444444444444444  444444444444444",
"444444444444444  44444444444444444  44444444444444444  44444444444444444  44444444444444444  44444444444444444  4444444444444444",
"                                                                                                                                ",
"                                                                                                                                ",
"                                                                                                                                ",
"                                                                                                                                ",
"444444444444444444     444444     44444444444444444444444444444444444444     444444     4444444444444444444444444444444444444444",
"44444444444444444444     444444     44444444444444444444444444444444444444     444444     44444444444444444444444444444444444444",
"4444444444444444444444     444444     44444444444444444444444444444444444444     444444     444444444444444444444444444444444444",
"4444444444444444444444     444444     44444444444444444444444444444444444444     444444     444444444444444444444444444444444444",
"4444444444444444444444     444444     44444444444444444444444444444444444444     444444     444444444444444444444444444444444444",
"44444444444444444444     444444     44444444444444444444444444444444444444     444444     44444444444444444444444444444444444444",
"444444444444444444     444444     44444444444444444444444444444444444444     444444     4444444444444444444444444444444444444444",
"                                                                                                                                ",
"                                                                                                                                ",
"                                                                                                                                ",
"                                                                                                                                ",
"                                                                                                                                "};
