/* XPM */
static char * Wall0_2_xpm[] = {
"128 128 10 1",
" 	c #F2F0E5",
".	c #C2D368",
"+	c #D3A068",
"@	c #A77B5B",
"#	c #B8B5B9",
"$	c #868188",
"%	c #80493A",
"&	c #8AB060",
"*	c #B2B47E",
"=	c #43436A",
"                                                                                                                                ",
"                           .....                                                                .....                           ",
"   +@    #+@@@$$@@@++$#$$%.&&&&&.%+#%$$@$#++#%+#+@@#++$@$@@#++#$#$###$$@@+#@$++$#+#@+##+@#+##%%.&&&&&.%$$##@$#@##$++$+@    ..   ",
"  @%+@  @                 .&&&&&&                                                               &&&&.                  %  .&&.  ",
"  +@%@  +                  .&&&&                                                                &..                    %  &&&.  ",
"   +@  +                    .&&&                                                                .&&                     +...&   ",
"      @                      ..&                                                                 &&&                     %&&..  ",
"     @                       &&.                                                                 &&&                     &&&&   ",
"   @+                       &&&&                                                                 &&&                      &&&&  ",
"  +                         &&&                                                                  &&&                  *    &&&. ",
"  @                         &&&                                                                  &..                 **&.  ...& ",
"  +                         &&&                                                                 ..&&                 *  &. &&&  ",
"  +                         &&&                                                                 &&&&                 *   &&&&+  ",
"  @                         &&&                                                                &&&&                       ** %  ",
"  @                         .&&                                                                &&&                           %  ",
"  @                         &..                                                                &&&                           +  ",
"  $                         &&&.                                                               &&&                           %  ",
"  $                         &&&&                                                                *&&                          @  ",
"  @                          &&&&                                                               *&&&&                        %  ",
"  #                          &&&&                                                                *&&..                       #  ",
"  +                           &&&                                                                 &&.&&                      +  ",
"  @                           &&&                                                                  .&&&                      @  ",
"  #                           &&&                                                                  &&&&                      $  ",
"  +                           &&&                                                                   &&&                      @  ",
"  +                           &&&                                                                   &&&                      @  ",
"  +                          &&&                                                                   &&&*                      +  ",
"  $                        &&&&&                                                                   &&&*                      @  ",
"  $                        &&&&*                                                                   ..&*                      +  ",
"  $                       ..&&*                                                                    &&..                      @  ",
"  $                      &&.&*                                                                     &&&&                      $  ",
"  $                      &&&.                                                                    *&&&&                       #  ",
"  #                      &&&&                                                                    *&&&&                       #  ",
"  #                      &&&*                                                                    *&.                         #  ",
"  $                      &&&                                                                     *.*                         #  ",
"  $                      &&&                                                                      *                          #  ",
"  #                      &&&                                                                                                 #  ",
"  #                      &&&                                                                                                 $  ",
"  $                      &&&*                                                                                                #  ",
"  $                      &&&*                                                                                                $  ",
"  #                      &&&.                                                                                                $  ",
"  $                      &..*                                                                                                $  ",
"  $                      .&&*                                                                                                $  ",
"  $                      &&&&                                                                                                $  ",
"  #                       &&&&                                                                                               #  ",
"  $                       &&&&&                                                                                              #  ",
"  #                       &&&&&                                                                                              $  ",
"  $                         &&.                                                                                              $  ",
"  $                         .&*                                                                                              #  ",
"  $                         *.*                                                                                              #  ",
"  $                          **                                                                                              $  ",
"  $                          *                                                                                               $  ",
"  $                                                                                                                          $  ",
"  $                                                                                                                          $  ",
"  #                                                                                                                          #  ",
"  $                                                                                                                          #  ",
"  $                                                                                                                          #  ",
"  $                                                                                                                          #  ",
"  $                                                                                                                          $  ",
"  #                                                                                                                          #  ",
"  #                                                                                                                          $  ",
"  $                                                                                                                          $  ",
"  $                                                                                                                          $  ",
"  $                                                                                                                          #  ",
"  #                                                                                                                          #  ",
"  #                                                                                                                          #  ",
"  $                                                                                                                          $  ",
"  $                                                                                                                          $  ",
"  $                                                                                                                          $  ",
"  #                                                                                                                          $  ",
"  #                                                                                                                          $  ",
"  #                                                                                                                          #  ",
"  $                                                                                                                          #  ",
"  $                                                                                                                          $  ",
"  $                                                                                                                          $  ",
"  #                                                                                                                          #  ",
"  $                                                                                                                          #  ",
"  $                                                                                                                          #  ",
"  #                                                                                                                          #  ",
"  #                                                                                                                          $  ",
"  $                                                                                                                          #  ",
"  $                                                                                                                          $  ",
"  $                                                                                                                          #  ",
"  #                                                                                                                          #  ",
"  $                                                                                                                          $  ",
"  #                                                                                                                          $  ",
"  $                                                                                                                          $  ",
"  $                                                                                                                          $  ",
"  $                                                                                                                          $  ",
"  $                                                                                                                          #  ",
"  $                                                                                                                          #  ",
"  #                                                                                                                          #  ",
"  #                                                                                                                          $  ",
"  $                                                                                                                          $  ",
"  $                                                                                                                          $  ",
"  $                                                                                                                          #  ",
"  $                                                                                                                          $  ",
"  $                                                                                                                          $  ",
"  $                                                                                                                          #  ",
"  #                                                                                                                          #  ",
"  #                                                                                                                          #  ",
"  $                                                                                                                          $  ",
"  $                                                                                                                          #  ",
"  #                                                                                                                          $  ",
"   +                                                                                                                        #   ",
"    @                                                                                                                      $    ",
"     ++%%+%$$+%%@$+$@#+++$@@#$#$#$$#$#$$$$$$###$$$##$$#$###$$$$$$$###$$$$#$$#$#$$##$$$$$#$#$$###$$$$$$$$$####$$$##$$#$#$$$$     ",
"       &&&&&&                                                                                                                   ",
"      .&&&&&&                                                                                                                   ",
"======&...&&&==  =================  =================  =================  =================  =================  ================",
"======&&&&..====  =================  =================  =================  =================  =================  ===============",
"======&&&&&&.===  =================  =================  =================  =================  =================  ===============",
"=======&&&&&&==  =================  =================  =================  =================  =================  ================",
"         &&&&                                                                                                                   ",
"          &&&                                                                                                                   ",
"        . &&&                                                                                                                   ",
"       .& .&&                                                                                                                   ",
"=======.&&&.&=====     ======     ======================================     ======     ========================================",
"=======.&&&&.=======     ======     ======================================     ======     ======================================",
"========**&&*=========     ======     ======================================     ======     ====================================",
"==========**==========     ======     ======================================     ======     ====================================",
"======================     ======     ======================================     ======     ====================================",
"====================     ======     ======================================     ======     ======================================",
"==================     ======     ======================================     ======     ========================================",
"                                                                                                                                ",
"                                                                                                                                ",
"                                                                                                                                ",
"                                                                                                                                ",
"                                                                                                                                "};
